<svg width="22" height="18" viewBox="0 0 22 18" fill="none" xmlns="http://www.w3.org/2000/svg">
<path d="M21.162 2.65599C20.3986 2.99368 19.589 3.21546 18.76 3.31399C19.6337 2.79142 20.2877 1.969 20.6 0.999988C19.78 1.48799 18.881 1.82999 17.944 2.01499C17.3146 1.34157 16.4804 0.894951 15.5709 0.744572C14.6615 0.594194 13.7279 0.748479 12.9153 1.18344C12.1026 1.6184 11.4564 2.30967 11.0771 3.14978C10.6978 3.98989 10.6067 4.93177 10.818 5.82899C9.1551 5.74564 7.52832 5.31351 6.04328 4.56065C4.55823 3.80779 3.24812 2.75104 2.19799 1.45899C1.82628 2.09744 1.63095 2.82321 1.63199 3.56199C1.63199 5.01199 2.36999 6.29299 3.49199 7.04299C2.828 7.02208 2.17862 6.84277 1.59799 6.51999V6.57199C1.59819 7.53769 1.93236 8.4736 2.54384 9.22105C3.15532 9.96849 4.00647 10.4815 4.95299 10.673C4.33661 10.84 3.6903 10.8646 3.06299 10.745C3.32986 11.5762 3.85 12.3032 4.55058 12.8241C5.25117 13.345 6.09712 13.6338 6.96999 13.65C6.10247 14.3313 5.10917 14.835 4.04687 15.1322C2.98458 15.4293 1.87412 15.5142 0.778992 15.382C2.69069 16.6114 4.91609 17.2641 7.18899 17.262C14.882 17.262 19.089 10.889 19.089 5.36199C19.089 5.18199 19.084 4.99999 19.076 4.82199C19.8949 4.23016 20.6016 3.49701 21.163 2.65699L21.162 2.65599Z" fill="#454444"/>
</svg>
